<?xml version="1.0" encoding="UTF-8" standalone="no"?>
<!DOCTYPE svg PUBLIC "-//W3C//DTD SVG 1.1//EN" "http://www.w3.org/Graphics/SVG/1.1/DTD/svg11.dtd">
<svg width="100%" height="100%" viewBox="0 0 400 400" version="1.1" xmlns="http://www.w3.org/2000/svg" xmlns:xlink="http://www.w3.org/1999/xlink" xml:space="preserve" xmlns:serif="http://www.serif.com/" style="fill-rule:evenodd;clip-rule:evenodd;stroke-linejoin:round;stroke-miterlimit:2;">
    <g>
        <path d="M350,0L50,0C22.386,0 0,22.386 0,50L0,350C0,377.614 22.386,400 50,400L350,400C377.614,400 400,377.614 400,350L400,50C400,22.386 377.614,0 350,0Z" style="fill-rule:nonzero;"/>
        <g>
            <clipPath id="_clip1">
                <rect x="75" y="89" width="250" height="222.222"/>
            </clipPath>
            <g clip-path="url(#_clip1)">
                <path d="M252.015,216.917C250.556,216.778 249.098,216.57 247.709,216.362C249.167,216.57 250.626,216.709 252.015,216.917Z" style="fill:white;fill-rule:nonzero;"/>
                <path d="M200,187.611C188.681,165.597 157.847,124.556 129.167,104.347C101.736,84.903 91.25,88.306 84.375,91.361C76.458,94.972 75,107.195 75,114.347C75,121.5 78.958,173.236 81.528,181.847C90,210.32 120.208,219.972 147.986,216.917C149.375,216.709 150.833,216.5 152.292,216.361C150.833,216.57 149.444,216.778 147.986,216.917C107.222,222.959 71.042,237.82 118.542,290.667C170.764,344.764 190.069,279.07 200,245.806C209.931,279.07 221.389,342.403 280.556,290.667C325,245.806 292.778,222.959 252.014,216.917C250.556,216.778 249.097,216.57 247.708,216.361C249.167,216.57 250.625,216.709 252.014,216.917C279.792,220.042 310,210.389 318.472,181.847C321.042,173.236 325,121.57 325,114.347C325,107.125 323.542,94.972 315.625,91.361C308.75,88.236 298.264,84.903 270.833,104.278C242.153,124.486 211.319,165.528 200,187.542L200,187.611Z" style="fill:white;fill-rule:nonzero;"/>
            </g>
        </g>
    </g>
</svg>
